<?xml version="1.0" encoding="UTF-8" standalone="no"?>
<!DOCTYPE svg PUBLIC "-//W3C//DTD SVG 1.1//EN"
 "http://www.w3.org/Graphics/SVG/1.1/DTD/svg11.dtd">
<!-- Generated by graphviz version 2.38.0 (20140413.2041)
 -->
<!-- Title: %3 Pages: 1 -->
<svg width="863pt" height="420pt"
 viewBox="0.00 0.00 863.00 419.91" xmlns="http://www.w3.org/2000/svg" xmlns:xlink="http://www.w3.org/1999/xlink">
<g id="graph0" class="graph" transform="scale(1 1) rotate(0) translate(4 415.912)">
<title>%3</title>
<polygon fill="white" stroke="none" points="-4,4 -4,-415.912 859,-415.912 859,4 -4,4"/>
<!-- IDLE -->
<g id="node1" class="node"><title>IDLE</title>
<ellipse fill="none" stroke="black" cx="305" cy="-386.456" rx="56.6372" ry="25.4118"/>
<text text-anchor="start" x="289.5" y="-390.256" font-family="Lato" font-size="14.00">IDLE</text>
<text text-anchor="start" x="273" y="-376.256" font-family="Lato" font-style="italic" font-size="14.00">start state</text>
</g>
<!-- CLOSED -->
<g id="node3" class="node"><title>CLOSED</title>
<ellipse fill="none" stroke="black" cx="179" cy="-18" rx="46.2923" ry="18"/>
<text text-anchor="middle" x="179" y="-14.3" font-family="Lato" font-size="14.00">CLOSED</text>
</g>
<!-- IDLE&#45;&gt;CLOSED -->
<g id="edge4" class="edge"><title>IDLE&#45;&gt;CLOSED</title>
<path fill="none" stroke="#002092" d="M250.12,-380.162C162.308,-370.153 0,-344.665 0,-293 0,-293 0,-293 0,-104 0,-48.6878 70.6064,-29.3253 123.13,-22.5738"/>
<polygon fill="#002092" stroke="#002092" points="123.838,-26.0151 133.368,-21.3847 123.031,-19.0619 123.838,-26.0151"/>
<text text-anchor="middle" x="59" y="-201.3" font-family="Lato" font-size="14.00" fill="#002092">ConnectionClosed</text>
</g>
<!-- MUST_CLOSE -->
<g id="node4" class="node"><title>MUST_CLOSE</title>
<ellipse fill="none" stroke="black" cx="179" cy="-105" rx="69.5877" ry="18"/>
<text text-anchor="middle" x="179" y="-101.3" font-family="Lato" font-size="14.00">MUST_CLOSE</text>
</g>
<!-- IDLE&#45;&gt;MUST_CLOSE -->
<g id="edge11" class="edge"><title>IDLE&#45;&gt;MUST_CLOSE</title>
<path fill="none" stroke="#017517" d="M280.557,-363.267C265.39,-348.862 246.003,-329.247 231,-310 213.708,-287.816 209.857,-281.505 198,-256 175.78,-208.201 161.689,-193.202 169,-141 169.36,-138.426 169.863,-135.776 170.453,-133.141"/>
<polygon fill="#017517" stroke="#017517" points="173.898,-133.802 173.045,-123.241 167.126,-132.029 173.898,-133.802"/>
<text text-anchor="middle" x="249.5" y="-244.8" font-family="Lato" font-size="14.00" fill="#017517">peer in CLOSED</text>
</g>
<!-- SEND_BODY -->
<g id="node5" class="node"><title>SEND_BODY</title>
<ellipse fill="none" stroke="black" cx="305" cy="-292" rx="64.9885" ry="18"/>
<text text-anchor="middle" x="305" y="-288.3" font-family="Lato" font-size="14.00">SEND_BODY</text>
</g>
<!-- IDLE&#45;&gt;SEND_BODY -->
<g id="edge3" class="edge"><title>IDLE&#45;&gt;SEND_BODY</title>
<path fill="none" stroke="#002092" d="M305,-360.679C305,-348.226 305,-333.105 305,-320.316"/>
<polygon fill="#002092" stroke="#002092" points="308.5,-320.233 305,-310.233 301.5,-320.233 308.5,-320.233"/>
<text text-anchor="middle" x="331" y="-331.8" font-family="Lato" font-size="14.00" fill="#002092">Request</text>
</g>
<!-- DONE -->
<g id="node2" class="node"><title>DONE</title>
<ellipse fill="none" stroke="black" cx="305" cy="-205" rx="37.8943" ry="18"/>
<text text-anchor="middle" x="305" y="-201.3" font-family="Lato" font-size="14.00">DONE</text>
</g>
<!-- DONE&#45;&gt;IDLE -->
<g id="edge14" class="edge"><title>DONE&#45;&gt;IDLE</title>
<path fill="none" stroke="#7600a1" d="M340.083,-212.103C360.927,-217.114 386.927,-225.926 406,-241 419.639,-251.78 422.139,-257.309 427,-274 431.473,-289.362 434.789,-296.024 427,-310 412.369,-336.253 384.421,-354.522 358.963,-366.501"/>
<polygon fill="#7600a1" stroke="#7600a1" points="357.425,-363.355 349.725,-370.633 360.283,-369.745 357.425,-363.355"/>
<text text-anchor="start" x="432" y="-289.3" font-family="Lato" font-style="italic" font-size="14.00" fill="#7600a1">prepare_to_reuse()</text>
</g>
<!-- DONE&#45;&gt;CLOSED -->
<g id="edge1" class="edge"><title>DONE&#45;&gt;CLOSED</title>
<path fill="none" stroke="#002092" d="M334.481,-193.522C345.458,-188.018 356.756,-180.061 363,-169 369.118,-158.163 366.791,-152.853 363,-141 348.535,-95.7764 339.767,-81.4141 301,-54 280.862,-39.7591 255.009,-31.2803 232.29,-26.2474"/>
<polygon fill="#002092" stroke="#002092" points="232.937,-22.8073 222.439,-24.2319 231.534,-29.6653 232.937,-22.8073"/>
<text text-anchor="middle" x="416" y="-101.3" font-family="Lato" font-size="14.00" fill="#002092">ConnectionClosed</text>
</g>
<!-- DONE&#45;&gt;MUST_CLOSE -->
<g id="edge9" class="edge"><title>DONE&#45;&gt;MUST_CLOSE</title>
<path fill="none" stroke="#017517" d="M269.473,-198.844C236.51,-193.254 190.94,-183.188 180,-169 172.303,-159.017 171.333,-145.255 172.593,-133.139"/>
<polygon fill="#017517" stroke="#017517" points="176.084,-133.472 174.162,-123.053 169.167,-132.396 176.084,-133.472"/>
<text text-anchor="middle" x="231.5" y="-151.3" font-family="Lato" font-size="14.00" fill="#017517">peer in CLOSED</text>
</g>
<!-- DONE&#45;&gt;MUST_CLOSE -->
<g id="edge13" class="edge"><title>DONE&#45;&gt;MUST_CLOSE</title>
<path fill="none" stroke="#7600a1" d="M303.164,-186.825C300.787,-172.747 295.357,-153.218 283,-141 272.709,-130.825 259.367,-123.606 245.691,-118.486"/>
<polygon fill="#7600a1" stroke="#7600a1" points="246.798,-115.165 236.203,-115.266 244.548,-121.794 246.798,-115.165"/>
<text text-anchor="start" x="299" y="-158.8" font-family="Lato" font-style="italic" font-size="14.00" fill="#7600a1">keep&#45;alive</text>
<text text-anchor="start" x="304.5" y="-144.8" font-family="Lato" font-style="italic" font-size="14.00" fill="#7600a1">disabled</text>
</g>
<!-- MIGHT_SWITCH_PROTOCOL -->
<g id="node6" class="node"><title>MIGHT_SWITCH_PROTOCOL</title>
<ellipse fill="none" stroke="black" cx="651" cy="-105" rx="134.576" ry="18"/>
<text text-anchor="middle" x="651" y="-101.3" font-family="Lato" font-size="14.00">MIGHT_SWITCH_PROTOCOL</text>
</g>
<!-- DONE&#45;&gt;MIGHT_SWITCH_PROTOCOL -->
<g id="edge12" class="edge"><title>DONE&#45;&gt;MIGHT_SWITCH_PROTOCOL</title>
<path fill="none" stroke="#7600a1" d="M333.152,-192.791C368.103,-179.178 429.743,-156.162 484,-141 509.93,-133.754 538.499,-127.241 564.563,-121.854"/>
<polygon fill="#7600a1" stroke="#7600a1" points="565.32,-125.272 574.419,-119.846 563.922,-118.413 565.32,-125.272"/>
<text text-anchor="start" x="484" y="-158.8" font-family="Lato" font-style="italic" font-size="14.00" fill="#7600a1">Upgrade: or </text>
<text text-anchor="start" x="488.5" y="-144.8" font-family="Lato" font-style="italic" font-size="14.00" fill="#7600a1">CONNECT</text>
</g>
<!-- CLOSED&#45;&gt;CLOSED -->
<g id="edge5" class="edge"><title>CLOSED&#45;&gt;CLOSED</title>
<path fill="none" stroke="#002092" d="M220.645,-25.863C233.274,-25.6659 243.146,-23.0449 243.146,-18 243.146,-14.4528 238.265,-12.1039 230.977,-10.9534"/>
<polygon fill="#002092" stroke="#002092" points="230.889,-7.43564 220.645,-10.137 230.338,-14.4139 230.889,-7.43564"/>
<text text-anchor="middle" x="302.146" y="-14.3" font-family="Lato" font-size="14.00" fill="#002092">ConnectionClosed</text>
</g>
<!-- MUST_CLOSE&#45;&gt;CLOSED -->
<g id="edge2" class="edge"><title>MUST_CLOSE&#45;&gt;CLOSED</title>
<path fill="none" stroke="#002092" d="M179,-86.799C179,-75.1626 179,-59.5479 179,-46.2368"/>
<polygon fill="#002092" stroke="#002092" points="182.5,-46.1754 179,-36.1754 175.5,-46.1755 182.5,-46.1754"/>
<text text-anchor="middle" x="238" y="-57.8" font-family="Lato" font-size="14.00" fill="#002092">ConnectionClosed</text>
</g>
<!-- SEND_BODY&#45;&gt;DONE -->
<g id="edge6" class="edge"><title>SEND_BODY&#45;&gt;DONE</title>
<path fill="none" stroke="#002092" d="M305,-273.799C305,-262.163 305,-246.548 305,-233.237"/>
<polygon fill="#002092" stroke="#002092" points="308.5,-233.175 305,-223.175 301.5,-233.175 308.5,-233.175"/>
<text text-anchor="middle" x="353.5" y="-244.8" font-family="Lato" font-size="14.00" fill="#002092">EndOfMessage</text>
</g>
<!-- SEND_BODY&#45;&gt;SEND_BODY -->
<g id="edge7" class="edge"><title>SEND_BODY&#45;&gt;SEND_BODY</title>
<path fill="none" stroke="#002092" d="M363.932,-299.719C377.779,-299.085 387.994,-296.512 387.994,-292 387.994,-288.687 382.485,-286.419 374.074,-285.197"/>
<polygon fill="#002092" stroke="#002092" points="374.206,-281.694 363.932,-284.281 373.576,-288.666 374.206,-281.694"/>
<text text-anchor="middle" x="402.994" y="-288.3" font-family="Lato" font-size="14.00" fill="#002092">Data</text>
</g>
<!-- MIGHT_SWITCH_PROTOCOL&#45;&gt;DONE -->
<g id="edge10" class="edge"><title>MIGHT_SWITCH_PROTOCOL&#45;&gt;DONE</title>
<path fill="none" stroke="#017517" d="M632.548,-122.933C615.363,-137.666 588.349,-158.288 561,-169 492.082,-195.993 405.656,-202.73 352.921,-204.109"/>
<polygon fill="#017517" stroke="#017517" points="352.764,-200.611 342.838,-204.318 352.908,-207.61 352.764,-200.611"/>
<text text-anchor="middle" x="674" y="-151.3" font-family="Lato" font-size="14.00" fill="#017517">peer in SEND_BODY</text>
</g>
<!-- SWITCHED_PROTOCOL -->
<g id="node7" class="node"><title>SWITCHED_PROTOCOL</title>
<ellipse fill="none" stroke="black" cx="651" cy="-18" rx="111.581" ry="18"/>
<text text-anchor="middle" x="651" y="-14.3" font-family="Lato" font-size="14.00">SWITCHED_PROTOCOL</text>
</g>
<!-- MIGHT_SWITCH_PROTOCOL&#45;&gt;SWITCHED_PROTOCOL -->
<g id="edge8" class="edge"><title>MIGHT_SWITCH_PROTOCOL&#45;&gt;SWITCHED_PROTOCOL</title>
<path fill="none" stroke="#017517" d="M651,-86.799C651,-75.1626 651,-59.5479 651,-46.2368"/>
<polygon fill="#017517" stroke="#017517" points="654.5,-46.1754 651,-36.1754 647.5,-46.1755 654.5,-46.1754"/>
<text text-anchor="middle" x="753" y="-57.8" font-family="Lato" font-size="14.00" fill="#017517">peer in SWITCHED_PROTOCOL</text>
</g>
</g>
</svg>
