<?xml version="1.0" encoding="UTF-8" standalone="no"?>
<!DOCTYPE svg PUBLIC "-//W3C//DTD SVG 1.1//EN"
 "http://www.w3.org/Graphics/SVG/1.1/DTD/svg11.dtd">
<!-- Generated by graphviz version 2.38.0 (20140413.2041)
 -->
<!-- Title: %3 Pages: 1 -->
<svg width="859pt" height="507pt"
 viewBox="0.00 0.00 859.00 506.91" xmlns="http://www.w3.org/2000/svg" xmlns:xlink="http://www.w3.org/1999/xlink">
<g id="graph0" class="graph" transform="scale(1 1) rotate(0) translate(4 502.912)">
<title>%3</title>
<polygon fill="white" stroke="none" points="-4,4 -4,-502.912 855,-502.912 855,4 -4,4"/>
<!-- IDLE -->
<g id="node1" class="node"><title>IDLE</title>
<ellipse fill="none" stroke="black" cx="344" cy="-473.456" rx="56.6372" ry="25.4118"/>
<text text-anchor="start" x="328.5" y="-477.256" font-family="Lato" font-size="14.00">IDLE</text>
<text text-anchor="start" x="312" y="-463.256" font-family="Lato" font-style="italic" font-size="14.00">start state</text>
</g>
<!-- CLOSED -->
<g id="node3" class="node"><title>CLOSED</title>
<ellipse fill="none" stroke="black" cx="221" cy="-18" rx="46.2923" ry="18"/>
<text text-anchor="middle" x="221" y="-14.3" font-family="Lato" font-size="14.00">CLOSED</text>
</g>
<!-- IDLE&#45;&gt;CLOSED -->
<g id="edge3" class="edge"><title>IDLE&#45;&gt;CLOSED</title>
<path fill="none" stroke="#002092" d="M287.965,-468.964C190.488,-461.339 0,-438.904 0,-380 0,-380 0,-380 0,-104 0,-67.8572 104.27,-41.2623 169.568,-28.1513"/>
<polygon fill="#002092" stroke="#002092" points="170.553,-31.5248 179.691,-26.1635 169.204,-24.656 170.553,-31.5248"/>
<text text-anchor="middle" x="59" y="-244.8" font-family="Lato" font-size="14.00" fill="#002092">ConnectionClosed</text>
</g>
<!-- MUST_CLOSE -->
<g id="node4" class="node"><title>MUST_CLOSE</title>
<ellipse fill="none" stroke="black" cx="427" cy="-105" rx="69.5877" ry="18"/>
<text text-anchor="middle" x="427" y="-101.3" font-family="Lato" font-size="14.00">MUST_CLOSE</text>
</g>
<!-- IDLE&#45;&gt;MUST_CLOSE -->
<g id="edge11" class="edge"><title>IDLE&#45;&gt;MUST_CLOSE</title>
<path fill="none" stroke="#017517" d="M400.6,-471.205C511.786,-467.206 748,-450.423 748,-380 748,-380 748,-380 748,-204 748,-152.629 595.716,-125.532 500.926,-113.641"/>
<polygon fill="#017517" stroke="#017517" points="501.154,-110.143 490.803,-112.402 500.303,-117.091 501.154,-110.143"/>
<text text-anchor="middle" x="799.5" y="-288.3" font-family="Lato" font-size="14.00" fill="#017517">peer in CLOSED</text>
</g>
<!-- SEND_RESPONSE -->
<g id="node5" class="node"><title>SEND_RESPONSE</title>
<ellipse fill="none" stroke="black" cx="344" cy="-379" rx="85.5853" ry="18"/>
<text text-anchor="middle" x="344" y="-375.3" font-family="Lato" font-size="14.00">SEND_RESPONSE</text>
</g>
<!-- IDLE&#45;&gt;SEND_RESPONSE -->
<g id="edge4" class="edge"><title>IDLE&#45;&gt;SEND_RESPONSE</title>
<path fill="none" stroke="#7600a1" d="M344,-447.679C344,-435.226 344,-420.105 344,-407.316"/>
<polygon fill="#7600a1" stroke="#7600a1" points="347.5,-407.233 344,-397.233 340.5,-407.233 347.5,-407.233"/>
<text text-anchor="middle" x="370" y="-418.8" font-family="Lato" font-size="14.00" fill="#7600a1">Request</text>
</g>
<!-- SEND_BODY -->
<g id="node6" class="node"><title>SEND_BODY</title>
<ellipse fill="none" stroke="black" cx="344" cy="-292" rx="64.9885" ry="18"/>
<text text-anchor="middle" x="344" y="-288.3" font-family="Lato" font-size="14.00">SEND_BODY</text>
</g>
<!-- IDLE&#45;&gt;SEND_BODY -->
<g id="edge5" class="edge"><title>IDLE&#45;&gt;SEND_BODY</title>
<path fill="none" stroke="#002092" d="M295.663,-459.828C238.061,-442.362 153.648,-407.629 188,-361 204.009,-339.27 220.999,-353.17 246,-343 266.942,-334.481 289.469,-323.15 307.639,-313.43"/>
<polygon fill="#002092" stroke="#002092" points="309.585,-316.356 316.711,-308.516 306.251,-310.201 309.585,-316.356"/>
<text text-anchor="middle" x="218.5" y="-375.3" font-family="Lato" font-size="14.00" fill="#002092">Response</text>
</g>
<!-- DONE -->
<g id="node2" class="node"><title>DONE</title>
<ellipse fill="none" stroke="black" cx="344" cy="-205" rx="37.8943" ry="18"/>
<text text-anchor="middle" x="344" y="-201.3" font-family="Lato" font-size="14.00">DONE</text>
</g>
<!-- DONE&#45;&gt;IDLE -->
<g id="edge16" class="edge"><title>DONE&#45;&gt;IDLE</title>
<path fill="none" stroke="#7600a1" d="M308.927,-211.691C241.451,-224.561 102.538,-261.363 130,-343 145.474,-389.001 155.959,-402.572 196,-430 220.846,-447.019 252.488,-457.281 280.132,-463.437"/>
<polygon fill="#7600a1" stroke="#7600a1" points="279.611,-466.904 290.115,-465.525 281.043,-460.052 279.611,-466.904"/>
<text text-anchor="start" x="130" y="-332.8" font-family="Lato" font-style="italic" font-size="14.00" fill="#7600a1">prepare_to_reuse()</text>
</g>
<!-- DONE&#45;&gt;CLOSED -->
<g id="edge1" class="edge"><title>DONE&#45;&gt;CLOSED</title>
<path fill="none" stroke="#002092" d="M316.322,-192.714C289.248,-180.074 249.351,-156.823 230,-123 216.62,-99.6133 215.745,-68.3142 217.364,-46.1805"/>
<polygon fill="#002092" stroke="#002092" points="220.857,-46.4112 218.315,-36.126 213.889,-45.7519 220.857,-46.4112"/>
<text text-anchor="middle" x="289" y="-101.3" font-family="Lato" font-size="14.00" fill="#002092">ConnectionClosed</text>
</g>
<!-- DONE&#45;&gt;MUST_CLOSE -->
<g id="edge12" class="edge"><title>DONE&#45;&gt;MUST_CLOSE</title>
<path fill="none" stroke="#017517" d="M372.52,-192.916C383.952,-187.248 396.421,-179.333 405,-169 413.471,-158.797 418.765,-145.122 422.03,-133.121"/>
<polygon fill="#017517" stroke="#017517" points="425.496,-133.672 424.405,-123.134 418.686,-132.052 425.496,-133.672"/>
<text text-anchor="middle" x="471.5" y="-151.3" font-family="Lato" font-size="14.00" fill="#017517">peer in CLOSED</text>
</g>
<!-- DONE&#45;&gt;MUST_CLOSE -->
<g id="edge15" class="edge"><title>DONE&#45;&gt;MUST_CLOSE</title>
<path fill="none" stroke="#7600a1" d="M338.019,-187.002C334.371,-173.402 331.955,-154.447 341,-141 346.736,-132.473 354.948,-126.023 364.047,-121.143"/>
<polygon fill="#7600a1" stroke="#7600a1" points="365.813,-124.181 373.384,-116.769 362.843,-117.842 365.813,-124.181"/>
<text text-anchor="start" x="341" y="-158.8" font-family="Lato" font-style="italic" font-size="14.00" fill="#7600a1">keep&#45;alive</text>
<text text-anchor="start" x="346.5" y="-144.8" font-family="Lato" font-style="italic" font-size="14.00" fill="#7600a1">disabled</text>
</g>
<!-- CLOSED&#45;&gt;CLOSED -->
<g id="edge6" class="edge"><title>CLOSED&#45;&gt;CLOSED</title>
<path fill="none" stroke="#002092" d="M262.645,-25.863C275.274,-25.6659 285.146,-23.0449 285.146,-18 285.146,-14.4528 280.265,-12.1039 272.977,-10.9534"/>
<polygon fill="#002092" stroke="#002092" points="272.889,-7.43564 262.645,-10.137 272.338,-14.4139 272.889,-7.43564"/>
<text text-anchor="middle" x="344.146" y="-14.3" font-family="Lato" font-size="14.00" fill="#002092">ConnectionClosed</text>
</g>
<!-- MUST_CLOSE&#45;&gt;CLOSED -->
<g id="edge2" class="edge"><title>MUST_CLOSE&#45;&gt;CLOSED</title>
<path fill="none" stroke="#002092" d="M391.587,-89.388C355.367,-74.4426 299.182,-51.2594 261.285,-35.6225"/>
<polygon fill="#002092" stroke="#002092" points="262.17,-32.2014 251.591,-31.6225 259.5,-38.6722 262.17,-32.2014"/>
<text text-anchor="middle" x="396" y="-57.8" font-family="Lato" font-size="14.00" fill="#002092">ConnectionClosed</text>
</g>
<!-- SEND_RESPONSE&#45;&gt;SEND_RESPONSE -->
<g id="edge7" class="edge"><title>SEND_RESPONSE&#45;&gt;SEND_RESPONSE</title>
<path fill="none" stroke="#002092" d="M422.304,-386.498C437.234,-385.601 447.792,-383.102 447.792,-379 447.792,-375.892 441.729,-373.704 432.294,-372.436"/>
<polygon fill="#002092" stroke="#002092" points="432.586,-368.948 422.304,-371.502 431.935,-375.917 432.586,-368.948"/>
<text text-anchor="middle" x="520.292" y="-375.3" font-family="Lato" font-size="14.00" fill="#002092">InformationalResponse</text>
</g>
<!-- SEND_RESPONSE&#45;&gt;SEND_BODY -->
<g id="edge8" class="edge"><title>SEND_RESPONSE&#45;&gt;SEND_BODY</title>
<path fill="none" stroke="#002092" d="M344,-360.799C344,-349.163 344,-333.548 344,-320.237"/>
<polygon fill="#002092" stroke="#002092" points="347.5,-320.175 344,-310.175 340.5,-320.175 347.5,-320.175"/>
<text text-anchor="middle" x="374.5" y="-331.8" font-family="Lato" font-size="14.00" fill="#002092">Response</text>
</g>
<!-- SWITCHED_PROTOCOL -->
<g id="node7" class="node"><title>SWITCHED_PROTOCOL</title>
<ellipse fill="none" stroke="black" cx="539" cy="-205" rx="111.581" ry="18"/>
<text text-anchor="middle" x="539" y="-201.3" font-family="Lato" font-size="14.00">SWITCHED_PROTOCOL</text>
</g>
<!-- SEND_RESPONSE&#45;&gt;SWITCHED_PROTOCOL -->
<g id="edge13" class="edge"><title>SEND_RESPONSE&#45;&gt;SWITCHED_PROTOCOL</title>
<path fill="none" stroke="#7600a1" d="M395.398,-364.488C445.93,-348.126 520.117,-315.112 553,-256 557.05,-248.719 556.351,-240.179 553.804,-232.237"/>
<polygon fill="#7600a1" stroke="#7600a1" points="557.029,-230.877 549.976,-222.972 550.56,-233.55 557.029,-230.877"/>
<text text-anchor="start" x="540" y="-289.3" font-family="Lato" font-style="italic" font-size="14.00" fill="#7600a1">101 Switching protocols</text>
</g>
<!-- SEND_BODY&#45;&gt;DONE -->
<g id="edge10" class="edge"><title>SEND_BODY&#45;&gt;DONE</title>
<path fill="none" stroke="#002092" d="M344,-273.799C344,-262.163 344,-246.548 344,-233.237"/>
<polygon fill="#002092" stroke="#002092" points="347.5,-233.175 344,-223.175 340.5,-233.175 347.5,-233.175"/>
<text text-anchor="middle" x="392.5" y="-244.8" font-family="Lato" font-size="14.00" fill="#002092">EndOfMessage</text>
</g>
<!-- SEND_BODY&#45;&gt;SEND_BODY -->
<g id="edge9" class="edge"><title>SEND_BODY&#45;&gt;SEND_BODY</title>
<path fill="none" stroke="#002092" d="M402.932,-299.719C416.779,-299.085 426.994,-296.512 426.994,-292 426.994,-288.687 421.485,-286.419 413.074,-285.197"/>
<polygon fill="#002092" stroke="#002092" points="413.206,-281.694 402.932,-284.281 412.576,-288.666 413.206,-281.694"/>
<text text-anchor="middle" x="441.994" y="-288.3" font-family="Lato" font-size="14.00" fill="#002092">Data</text>
</g>
<!-- SEND_BODY&#45;&gt;SWITCHED_PROTOCOL -->
<g id="edge14" class="edge"><title>SEND_BODY&#45;&gt;SWITCHED_PROTOCOL</title>
<path fill="none" stroke="#7600a1" d="M386.38,-278.288C403.974,-272.395 424.359,-264.751 442,-256 452.933,-250.577 454.348,-246.956 465,-241 473.931,-236.006 483.692,-231.053 493.109,-226.512"/>
<polygon fill="#7600a1" stroke="#7600a1" points="494.832,-229.569 502.369,-222.123 491.833,-223.244 494.832,-229.569"/>
<text text-anchor="start" x="465" y="-245.8" font-family="Lato" font-style="italic" font-size="14.00" fill="#7600a1">2xx CONNECT</text>
</g>
</g>
</svg>
